<?xml version="1.0" encoding="UTF-8"?><svg id="Layer_2" xmlns="http://www.w3.org/2000/svg" viewBox="0 0 62 81"><defs><style>.cls-1{stroke:#000;stroke-miterlimit:10;}</style></defs><g id="Layer_1-2"><path class="cls-1" d="M20.5,60.5h20v10c0,5.52-4.48,10-10,10h0c-5.52,0-10-4.48-10-10v-10h0Z"/><path class="cls-1" d="M51.5,.5h0c5.52,0,10,4.48,10,10V50.5c0,5.52-4.48,10-10,10h-10V10.5c0-5.52,4.48-10,10-10Z"/><path class="cls-1" d="M10.5,40.5h0c5.52,0,10,4.48,10,10v10H10.5c-5.52,0-10-4.48-10-10H.5c0-5.52,4.48-10,10-10Z"/></g></svg>